<?xml version="1.0" standalone="no"?>
<!DOCTYPE svg PUBLIC "-//W3C//DTD SVG 20010904//EN"
 "http://www.w3.org/TR/2001/REC-SVG-20010904/DTD/svg10.dtd">
<svg version="1.0" xmlns="http://www.w3.org/2000/svg"
 width="260.000000pt" height="260.000000pt" viewBox="0 0 260.000000 260.000000"
 preserveAspectRatio="xMidYMid meet">
<metadata>
Created by potrace 1.11, written by Peter Selinger 2001-2013
</metadata>
<g transform="translate(0.000000,260.000000) scale(0.100000,-0.100000)"
fill="#000000" stroke="none">
<path d="M470 2593 c-198 -34 -375 -186 -442 -381 l-23 -67 0 -845 0 -845 23
-67 c58 -166 194 -302 361 -360 l66 -23 845 0 845 0 67 23 c166 58 302 194
360 361 l23 66 0 845 0 845 -23 67 c-57 165 -187 295 -358 360 l-59 23 -830 1
c-456 1 -841 0 -855 -3z m474 -593 c142 -36 205 -84 255 -190 21 -45 25 -70
26 -140 0 -74 -4 -93 -29 -143 -29 -60 -94 -121 -155 -147 l-31 -13 79 -38
c132 -65 177 -142 169 -293 -8 -145 -79 -256 -206 -320 -98 -49 -151 -56 -479
-56 l-303 0 0 680 0 680 298 0 c265 0 308 -2 376 -20z m1125 5 c139 -33 259
-129 301 -242 12 -32 24 -93 27 -138 13 -195 -61 -346 -208 -425 -91 -48 -148
-61 -316 -67 l-153 -6 0 -233 0 -234 -135 0 -135 0 0 680 0 680 278 0 c212 0
292 -4 341 -15z"/>
<path d="M548 1814 c-5 -4 -8 -90 -8 -192 l0 -184 148 4 c139 3 150 4 193 30
34 20 51 38 63 68 22 55 20 135 -4 188 -30 66 -80 84 -250 90 -74 2 -138 1
-142 -4z"/>
<path d="M540 1061 l0 -191 158 0 c131 0 164 3 198 19 74 33 112 110 101 204
-8 63 -31 100 -81 129 -38 21 -54 23 -208 26 l-168 4 0 -191z"/>
<path d="M1720 1581 l0 -241 108 0 c141 0 199 17 245 71 73 84 78 249 10 329
-48 58 -94 73 -235 78 l-128 5 0 -242z"/>
</g>
</svg>
